<svg xmlns="http://www.w3.org/2000/svg" viewBox="-4038 1963.696 71.49 71.134">
  <defs>
    <style>
      .cls-1 {
        fill: #db0c18;
      }
    </style>
  </defs>
  <g id="Group_994" data-name="Group 994" transform="translate(-4038 1963.696)">
    <path id="Path_34" data-name="Path 34" class="cls-1" d="M26.6,52.768A26.384,26.384,0,1,1,52.839,26.241v.142A26.39,26.39,0,0,1,26.6,52.768Zm0-49.71A23.327,23.327,0,1,0,49.71,26.6v-.142A23.264,23.264,0,0,0,26.6,3.058Z" transform="translate(0 0)"/>
    <rect id="Rectangle_93" data-name="Rectangle 93" class="cls-1" width="3.556" height="21.619" transform="translate(44.21 46.399) rotate(-45)"/>
    <path id="Path_35" data-name="Path 35" class="cls-1" d="M74.056,66.493,88.99,81.428a5.022,5.022,0,0,1,0,7.04h0a5.023,5.023,0,0,1-7.04,0L67.015,73.534a5.022,5.022,0,0,1,0-7.04h0A4.9,4.9,0,0,1,74.056,66.493Z" transform="translate(-18.94 -18.775)"/>
  </g>
</svg>
